name rise42.5664peak47.7979fall81.9185.mot
datacolumns 19
datarows 18
range 8.54496200000000 8.57330000000000
endheader
time	ground_force1_vx	ground_force1_vy	ground_force1_vz	ground_force1_px	ground_force1_py	ground_force1_pz	ground_force2_vx	ground_force2_vy	ground_force2_vz	ground_force2_px	ground_force2_py	ground_force2_pz	ground_torque1_x	ground_torque1_y	ground_torque1_z	ground_torque2_x	ground_torque2_y	ground_torque2_z	
8.54496200000000	5.69661600000000	708.20005800000001	43.41372400000000	0.18148700000000	0.00000000000000	0.11648000000000	0.00000000000000	0.00000000000000	0.00000000000000	0.00000000000000	0.00000000000000	0.00000000000000	0.00000000000000	12.79490300000000	0.00000000000000	0.00000000000000	0.00000000000000	0.00000000000000	
8.54663800000000	5.33653700000000	709.12133400000005	43.42408000000000	0.18056500000000	0.00000000000000	0.11644400000000	0.00000000000000	0.00000000000000	0.00000000000000	0.00000000000000	0.00000000000000	0.00000000000000	0.00000000000000	12.81990500000000	0.00000000000000	0.00000000000000	0.00000000000000	0.00000000000000	
8.54829900000000	4.96813400000000	710.06064700000002	43.43777700000000	0.17962800000000	0.00000000000000	0.11640800000000	0.00000000000000	0.00000000000000	0.00000000000000	0.00000000000000	0.00000000000000	0.00000000000000	0.00000000000000	12.84780000000000	0.00000000000000	0.00000000000000	0.00000000000000	0.00000000000000	
8.54996800000000	4.59131500000000	711.01598799999999	43.45478200000000	0.17867400000000	0.00000000000000	0.11637200000000	0.00000000000000	0.00000000000000	0.00000000000000	0.00000000000000	0.00000000000000	0.00000000000000	0.00000000000000	12.87861300000000	0.00000000000000	0.00000000000000	0.00000000000000	0.00000000000000	
8.55163400000000	4.20601800000000	711.98543500000005	43.47506100000000	0.17770500000000	0.00000000000000	0.11633500000000	0.00000000000000	0.00000000000000	0.00000000000000	0.00000000000000	0.00000000000000	0.00000000000000	0.00000000000000	12.91236600000000	0.00000000000000	0.00000000000000	0.00000000000000	0.00000000000000	
8.55330400000000	3.81221000000000	712.96715500000005	43.49857100000000	0.17672200000000	0.00000000000000	0.11629600000000	0.00000000000000	0.00000000000000	0.00000000000000	0.00000000000000	0.00000000000000	0.00000000000000	0.00000000000000	12.94907800000000	0.00000000000000	0.00000000000000	0.00000000000000	0.00000000000000	
8.55496800000000	3.40989100000000	713.95940700000006	43.52526900000000	0.17572500000000	0.00000000000000	0.11625800000000	0.00000000000000	0.00000000000000	0.00000000000000	0.00000000000000	0.00000000000000	0.00000000000000	0.00000000000000	12.98876100000000	0.00000000000000	0.00000000000000	0.00000000000000	0.00000000000000	
8.55663400000000	2.99908800000000	714.96054900000001	43.55510500000000	0.17471500000000	0.00000000000000	0.11621800000000	0.00000000000000	0.00000000000000	0.00000000000000	0.00000000000000	0.00000000000000	0.00000000000000	0.00000000000000	13.03142200000000	0.00000000000000	0.00000000000000	0.00000000000000	0.00000000000000	
8.55830300000000	2.57986000000000	715.96904199999994	43.58802600000000	0.17369300000000	0.00000000000000	0.11617700000000	0.00000000000000	0.00000000000000	0.00000000000000	0.00000000000000	0.00000000000000	0.00000000000000	0.00000000000000	13.07706600000000	0.00000000000000	0.00000000000000	0.00000000000000	0.00000000000000	
8.55996900000000	2.15229000000000	716.98344799999995	43.62397100000000	0.17266100000000	0.00000000000000	0.11613500000000	0.00000000000000	0.00000000000000	0.00000000000000	0.00000000000000	0.00000000000000	0.00000000000000	0.00000000000000	13.12568700000000	0.00000000000000	0.00000000000000	0.00000000000000	0.00000000000000	
8.56163500000000	1.71649400000000	718.00243699999999	43.66287700000000	0.17161900000000	0.00000000000000	0.11609300000000	0.00000000000000	0.00000000000000	0.00000000000000	0.00000000000000	0.00000000000000	0.00000000000000	0.00000000000000	13.17727700000000	0.00000000000000	0.00000000000000	0.00000000000000	0.00000000000000	
8.56330300000000	1.27261300000000	719.02478900000006	43.70467400000000	0.17056800000000	0.00000000000000	0.11604900000000	0.00000000000000	0.00000000000000	0.00000000000000	0.00000000000000	0.00000000000000	0.00000000000000	0.00000000000000	13.23181800000000	0.00000000000000	0.00000000000000	0.00000000000000	0.00000000000000	
8.56496900000000	0.82081100000000	720.04939000000002	43.74928600000000	0.16951000000000	0.00000000000000	0.11600300000000	0.00000000000000	0.00000000000000	0.00000000000000	0.00000000000000	0.00000000000000	0.00000000000000	0.00000000000000	13.28928900000000	0.00000000000000	0.00000000000000	0.00000000000000	0.00000000000000	
8.56663100000000	0.36128300000000	721.07524100000001	43.79663300000000	0.16844600000000	0.00000000000000	0.11595700000000	0.00000000000000	0.00000000000000	0.00000000000000	0.00000000000000	0.00000000000000	0.00000000000000	0.00000000000000	13.34965800000000	0.00000000000000	0.00000000000000	0.00000000000000	0.00000000000000	
8.56830300000000	-0.10575900000000	722.10145000000000	43.84662700000000	0.16737600000000	0.00000000000000	0.11590900000000	0.00000000000000	0.00000000000000	0.00000000000000	0.00000000000000	0.00000000000000	0.00000000000000	0.00000000000000	13.41288900000000	0.00000000000000	0.00000000000000	0.00000000000000	0.00000000000000	
8.56996700000000	-0.58007600000000	723.12723700000004	43.89917500000000	0.16630300000000	0.00000000000000	0.11586000000000	0.00000000000000	0.00000000000000	0.00000000000000	0.00000000000000	0.00000000000000	0.00000000000000	0.00000000000000	13.47893700000000	0.00000000000000	0.00000000000000	0.00000000000000	0.00000000000000	
8.57163300000000	-1.06140900000000	724.15193399999998	43.95418100000000	0.16522600000000	0.00000000000000	0.11580900000000	0.00000000000000	0.00000000000000	0.00000000000000	0.00000000000000	0.00000000000000	0.00000000000000	0.00000000000000	13.54774900000000	0.00000000000000	0.00000000000000	0.00000000000000	0.00000000000000	
8.57330000000000	-1.54948100000000	725.17497800000001	44.01153900000000	0.16414900000000	0.00000000000000	0.11575600000000	0.00000000000000	0.00000000000000	0.00000000000000	0.00000000000000	0.00000000000000	0.00000000000000	0.00000000000000	13.61926800000000	0.00000000000000	0.00000000000000	0.00000000000000	0.00000000000000	
